<svg width="444" height="318" viewBox="0 0 444 318" fill="none" xmlns="http://www.w3.org/2000/svg">
<g filter="url(#filter0_i_2_23)">
<path fill-rule="evenodd" clip-rule="evenodd" d="M308.953 3.55689C280.685 10.0877 191.976 26.6697 164.775 30.5071C102.69 39.2592 45.9279 37.4562 12.5166 25.6684L0 21.2544V161.823V302.395L14.9882 307.503C23.2333 310.311 43.5513 314.215 60.1429 316.173C96.3237 320.448 131.715 317.102 217.059 301.343C322.946 281.795 370.677 279.777 420.652 292.74L443.625 298.701V155.467V12.2361L422.236 6.64958C394.183 -0.673398 334.338 -2.30847 308.953 3.55689Z" fill="#24690A"/>
</g>
<g filter="url(#filter1_b_2_23)">
<path fill-rule="evenodd" clip-rule="evenodd" d="M308.953 3.55689C280.685 10.0877 191.976 26.6697 164.775 30.5071C102.69 39.2592 45.9279 37.4562 12.5166 25.6684L0 21.2544V161.823V302.395L14.9882 307.503C23.2333 310.311 43.5513 314.215 60.1429 316.173C96.3237 320.448 131.715 317.102 217.059 301.343C322.946 281.795 370.677 279.777 420.652 292.74L443.625 298.701V155.467V12.2361L422.236 6.64958C394.183 -0.673398 334.338 -2.30847 308.953 3.55689Z" fill="#D9D9D9" fill-opacity="0.05"/>
</g>
<g filter="url(#filter2_d_2_23)">
<path d="M217.354 67.0919L216.235 64.2684C215.62 62.7154 215.079 61.4494 215.032 61.4549C214.986 61.4604 214.598 62.8364 214.17 64.5129L213.392 67.5609L210.123 68.0156L206.855 68.4704L209.549 70.0473C211.03 70.9146 212.248 71.7149 212.254 71.8257C212.261 71.9365 211.914 73.3777 211.484 75.0285C211.054 76.6791 210.723 78.0441 210.747 78.0614C210.772 78.0788 211.891 77.1151 213.233 75.9197C214.575 74.7242 215.705 73.7424 215.745 73.7377C215.785 73.733 217.013 74.4357 218.474 75.2994C219.936 76.163 221.15 76.8506 221.172 76.8275C221.195 76.8046 220.706 75.524 220.085 73.9818C219.465 72.4396 218.972 71.0904 218.989 70.9836C219.007 70.8767 220.12 69.8134 221.464 68.6208L223.907 66.4522L220.63 66.772L217.354 67.0919Z" fill="#FDFC00"/>
<path d="M175.295 79.0688L174.201 76.2855C173.599 74.7545 173.058 73.4347 172.998 73.3522C172.937 73.2681 172.538 74.5907 172.088 76.3729L171.286 79.5434L168.058 79.9254C164.263 80.3746 164.307 80.1152 167.696 82.0737C168.965 82.8072 170.057 83.4454 170.121 83.4918C170.186 83.5383 169.885 84.9766 169.452 86.6881C169.019 88.3997 168.691 89.8215 168.722 89.8477C168.754 89.8739 169.863 88.9366 171.188 87.7649C172.513 86.5932 173.67 85.6546 173.76 85.6793C173.85 85.704 175.057 86.3922 176.443 87.2087C177.829 88.0253 178.978 88.6338 178.997 88.5613C179.016 88.4887 178.523 87.1658 177.902 85.6217C177.281 84.0775 176.792 82.7946 176.816 82.7707C176.84 82.7468 177.915 81.7941 179.205 80.6534C180.494 79.5127 181.581 78.5194 181.619 78.4458C181.661 78.3656 180.411 78.4634 178.492 78.6904L175.295 79.0688Z" fill="#FDFC00"/>
<path d="M260.266 69.0119L259.117 66.0901C258.485 64.4831 257.944 63.1711 257.914 63.1746C257.885 63.1781 257.5 64.5989 257.059 66.3319L256.257 69.4829L253.061 69.863C251.142 70.0911 249.897 70.2893 249.948 70.3586C249.994 70.4222 251.18 71.1465 252.584 71.9684C253.988 72.7903 255.158 73.4773 255.184 73.4952C255.21 73.5132 254.876 74.8936 254.441 76.5627C254.006 78.2318 253.673 79.6525 253.7 79.7196C253.727 79.7867 254.791 78.9162 256.063 77.785C257.336 76.6539 258.449 75.6902 258.538 75.6435C258.626 75.5967 259.876 76.2496 261.316 77.0945C262.756 77.9393 263.957 78.6039 263.984 78.5715C264.011 78.539 263.522 77.2134 262.898 75.6255C262.273 74.0377 261.815 72.695 261.88 72.6416C262.577 72.0641 266.565 68.4731 266.614 68.3785C266.65 68.3089 265.249 68.4222 263.472 68.6324L260.266 69.0119Z" fill="#FDFC00"/>
<path d="M138.228 103.021L137.08 100.102C136.449 98.4959 135.901 97.1877 135.862 97.1943C135.823 97.201 135.435 98.6077 135 100.32L134.208 103.434L130.983 103.884L127.757 104.333L130.415 105.894C131.877 106.753 133.078 107.544 133.085 107.652C133.091 107.761 132.751 109.187 132.328 110.822C131.906 112.456 131.584 113.813 131.613 113.837C131.642 113.862 132.742 112.923 134.059 111.753C135.375 110.582 136.512 109.617 136.585 109.608C136.658 109.599 137.889 110.283 139.32 111.127C140.751 111.971 141.941 112.638 141.965 112.609C141.989 112.581 141.514 111.303 140.909 109.771C140.304 108.238 139.805 106.915 139.799 106.832C139.793 106.748 140.893 105.7 142.245 104.504L144.701 102.328L141.465 102.675L138.228 103.021Z" fill="#FDFC00"/>
<path d="M299.591 83.8595L298.452 80.9743C297.825 79.3875 297.281 78.0912 297.241 78.0938C297.202 78.0964 296.812 79.5157 296.375 81.248L295.579 84.3976L292.352 84.8158L289.125 85.2342L291.793 86.797C293.261 87.6564 294.465 88.4313 294.468 88.5189C294.472 88.6064 294.132 90.0312 293.712 91.6851C293.292 93.3391 292.97 94.7107 292.997 94.7334C293.024 94.7559 294.122 93.8181 295.436 92.6492C296.75 91.4802 297.885 90.5169 297.958 90.5082C298.031 90.4996 299.264 91.1842 300.697 92.0296C302.131 92.8748 303.325 93.5415 303.351 93.5108C303.376 93.4801 302.902 92.2172 302.297 90.7045C301.692 89.1917 301.192 87.8665 301.186 87.7596C301.18 87.6525 302.278 86.5892 303.626 85.3964L306.078 83.2277L302.835 83.5436L299.591 83.8595Z" fill="#FDFC00"/>
<path d="M176.905 106.67L175.761 103.768C175.132 102.172 174.593 100.846 174.564 100.822C174.535 100.798 174.142 102.211 173.69 103.963L172.868 107.148L169.694 107.592L166.52 108.036L169.102 109.55C170.522 110.383 171.718 111.111 171.76 111.169C171.802 111.227 171.485 112.62 171.057 114.265C170.628 115.91 170.282 117.327 170.287 117.413C170.292 117.5 171.352 116.634 172.642 115.488C173.933 114.342 175.055 113.355 175.137 113.294C175.22 113.232 176.34 113.805 177.69 114.6C179.013 115.38 180.241 116.093 180.418 116.185C180.713 116.339 180.639 116.093 179.572 113.394C178.929 111.766 178.401 110.424 178.399 110.411C178.398 110.398 179.499 109.411 180.848 108.218L183.3 106.05L180.103 106.36L176.905 106.67Z" fill="#FDFC00"/>
<path d="M268.281 95.9914L265.085 96.3017L261.889 96.6119L260.69 93.6281L259.49 90.6443L258.67 93.8672L257.85 97.09L254.66 97.5356L251.469 97.9811L254.138 99.5396C255.606 100.397 256.807 101.111 256.806 101.126C256.806 101.142 256.439 102.593 255.991 104.351C255.247 107.273 255.203 107.525 255.479 107.303C255.645 107.169 256.774 106.176 257.99 105.096C259.229 103.995 260.268 103.166 260.357 103.208C260.445 103.249 261.666 103.958 263.07 104.785C264.475 105.612 265.621 106.217 265.616 106.131C265.611 106.044 265.106 104.728 264.493 103.206C263.881 101.684 263.409 100.385 263.443 100.318C263.478 100.251 264.581 99.2504 265.893 98.0939L268.281 95.9914Z" fill="#FDFC00"/>
<path d="M219.407 101.703L218.261 98.7834C217.63 97.1776 217.076 95.8683 217.028 95.8739C216.981 95.8795 216.584 97.3014 216.147 99.0337L215.35 102.183L212.173 102.596L208.995 103.008L211.666 104.573L214.338 106.138L213.528 109.301C213.083 111.042 212.736 112.48 212.757 112.498C212.779 112.516 213.91 111.542 215.271 110.334L217.745 108.138L220.437 109.719C221.917 110.588 223.143 111.283 223.161 111.262C223.178 111.242 222.669 109.907 222.03 108.295L220.866 105.365L223.321 103.194L225.776 101.022L222.591 101.363L219.407 101.703Z" fill="#FDFC00"/>
<path d="M109.599 137.197L108.478 134.407C107.862 132.873 107.321 131.535 107.277 131.432C107.233 131.33 106.826 132.693 106.373 134.461L105.549 137.676L102.368 138.12L99.1877 138.565L101.789 140.089C103.219 140.927 104.416 141.65 104.449 141.695C104.482 141.74 104.143 143.203 103.697 144.946C103.251 146.69 102.907 148.113 102.932 148.11C102.957 148.107 104.062 147.141 105.387 145.963C106.711 144.784 107.86 143.813 107.939 143.803C108.018 143.794 109.233 144.462 110.64 145.289C112.046 146.116 113.227 146.757 113.263 146.714C113.299 146.671 112.826 145.366 112.212 143.815C111.598 142.264 111.118 140.951 111.146 140.897C111.174 140.844 112.275 139.85 113.592 138.688L115.988 136.576L112.794 136.886L109.599 137.197Z" fill="#FDFC00"/>
<path d="M331.806 110.897L330.689 108.107C330.075 106.573 329.536 105.237 329.492 105.138C329.448 105.039 329.039 106.403 328.584 108.167L327.757 111.376L324.577 111.82L321.398 112.264L323.999 113.788C325.429 114.627 326.626 115.349 326.659 115.394C326.692 115.439 326.353 116.903 325.907 118.646C325.461 120.389 325.117 121.813 325.142 121.81C325.167 121.807 326.272 120.841 327.597 119.662C328.922 118.484 330.07 117.512 330.149 117.503C330.227 117.494 331.424 118.147 332.807 118.954C334.191 119.762 335.393 120.454 335.478 120.492C335.563 120.531 335.108 119.24 334.466 117.624C333.825 116.008 333.299 114.67 333.298 114.65C333.297 114.63 334.399 113.637 335.748 112.445L338.2 110.276L335.003 110.586L331.806 110.897Z" fill="#FDFC00"/>
<path d="M98.7523 177.349L95.5423 177.692L92.3324 178.036L91.1405 175.02L89.9486 172.003L89.128 175.226L88.3075 178.449L85.0958 178.897L81.8842 179.345L84.3331 180.778C85.68 181.566 86.8906 182.279 87.0232 182.362C87.247 182.503 87.2059 182.741 86.4556 185.667C86.0107 187.402 85.6631 188.837 85.6831 188.857C85.7031 188.878 86.8338 187.904 88.1961 186.695L90.6728 184.495L91.3166 184.874L93.9898 186.445C95.1059 187.102 96.0376 187.617 96.0601 187.59C96.0825 187.563 95.5962 186.258 94.9793 184.689C94.3625 183.121 93.8557 181.803 93.8533 181.762C93.8509 181.72 94.9522 180.71 96.3006 179.517L98.7523 177.349Z" fill="#FDFC00"/>
<path d="M353.511 147.06L352.369 144.163C351.741 142.569 351.202 141.244 351.171 141.217C351.14 141.191 350.75 142.616 350.304 144.384L349.495 147.599L346.289 148.014L343.083 148.43L345.689 149.95C347.122 150.786 348.327 151.514 348.366 151.567C348.405 151.621 348.084 153.059 347.654 154.763C347.223 156.466 346.891 157.878 346.916 157.899C346.942 157.92 347.801 157.193 348.827 156.283L351.282 154.105L351.874 153.58L354.57 155.167C356.053 156.04 357.281 156.734 357.298 156.71C357.315 156.685 356.808 155.351 356.171 153.744C355.534 152.138 355.053 150.781 355.102 150.728C355.151 150.676 356.26 149.688 357.567 148.534L359.943 146.435L356.727 146.747L353.511 147.06Z" fill="#FDFC00"/>
<path d="M223.758 142.584L221.158 131.63C219.729 125.605 218.516 120.68 218.464 120.687C218.411 120.693 217.783 125.835 217.067 132.114L215.765 143.53L217.174 144.722L218.583 145.914L219.662 165.365L220.741 184.816L207.461 171.398L194.181 157.98L194.198 156.768C194.238 153.929 195.28 154.949 185.221 147.979C180.309 144.575 176.185 141.74 176.057 141.678C175.93 141.616 176.989 143.281 178.412 145.378C179.835 147.476 182.674 151.656 184.72 154.669L188.441 160.147L190.201 160.072C191.169 160.031 192.025 160.029 192.104 160.067C192.31 160.167 220.367 188.507 220.448 188.697C220.501 188.821 197.204 222.009 195.972 223.564C195.747 223.849 195.157 224.067 193.734 224.393L191.801 224.836L185.479 233.785C182.002 238.707 179.192 242.764 179.235 242.8C179.279 242.836 180.538 242.611 182.034 242.301C183.899 241.913 184.775 241.796 184.822 241.928C184.861 242.034 185.057 243.274 185.26 244.683C185.463 246.092 185.659 247.27 185.696 247.301C185.733 247.331 188.591 243.351 192.048 238.455L198.333 229.554L198.147 227.508L197.962 225.461L209.197 209.549C215.377 200.797 220.625 193.398 220.86 193.107L221.288 192.577L222.422 212.135L223.557 231.692L222.21 233.342L220.863 234.991L221.478 245.587C221.816 251.415 222.156 256.176 222.233 256.167C222.31 256.158 223.204 255.162 224.22 253.953L226.067 251.756L228.142 253.489C229.284 254.442 230.281 255.215 230.358 255.205C230.435 255.196 230.221 250.421 229.883 244.593L229.268 233.996L227.75 232.686L226.231 231.376L225.097 211.818L223.962 192.261L224.446 192.682C224.712 192.914 230.742 198.977 237.845 206.155L250.759 219.206L250.812 221.267L250.865 223.328L258.092 230.632C262.066 234.65 265.345 237.906 265.376 237.868C265.408 237.83 265.463 236.623 265.499 235.186C265.534 233.749 265.586 232.478 265.614 232.362C265.65 232.214 266.492 232.126 268.414 232.07C269.925 232.026 271.194 231.953 271.232 231.908C271.27 231.862 268.031 228.522 264.034 224.486L256.768 217.147L254.809 217.165C253.365 217.178 252.758 217.101 252.504 216.873C251.132 215.648 224.307 188.364 224.345 188.233C224.371 188.141 229.924 180.241 236.685 170.677L248.978 153.289L250.162 153.023C250.814 152.876 251.628 152.723 251.972 152.683C252.66 152.601 251.875 154.116 260.826 135.601C261.994 133.185 262.803 131.349 262.622 131.522C262.442 131.694 258.696 135.474 254.299 139.922C245.297 149.025 246.192 147.793 246.557 150.576L246.714 151.774L235.16 168.127L223.607 184.479L222.43 165.039L221.253 145.598L222.506 144.091L223.758 142.584Z" fill="#FDFC00"/>
</g>
<defs>
<filter id="filter0_i_2_23" x="0" y="0" width="443.625" height="317.878" filterUnits="userSpaceOnUse" color-interpolation-filters="sRGB">
<feFlood flood-opacity="0" result="BackgroundImageFix"/>
<feBlend mode="normal" in="SourceGraphic" in2="BackgroundImageFix" result="shape"/>
<feColorMatrix in="SourceAlpha" type="matrix" values="0 0 0 0 0 0 0 0 0 0 0 0 0 0 0 0 0 0 127 0" result="hardAlpha"/>
<feOffset/>
<feGaussianBlur stdDeviation="22.5"/>
<feComposite in2="hardAlpha" operator="arithmetic" k2="-1" k3="1"/>
<feColorMatrix type="matrix" values="0 0 0 0 1 0 0 0 0 1 0 0 0 0 1 0 0 0 0.54 0"/>
<feBlend mode="normal" in2="shape" result="effect1_innerShadow_2_23"/>
</filter>
<filter id="filter1_b_2_23" x="-23" y="-23" width="489.625" height="363.878" filterUnits="userSpaceOnUse" color-interpolation-filters="sRGB">
<feFlood flood-opacity="0" result="BackgroundImageFix"/>
<feGaussianBlur in="BackgroundImage" stdDeviation="11.5"/>
<feComposite in2="SourceAlpha" operator="in" result="effect1_backgroundBlur_2_23"/>
<feBlend mode="normal" in="SourceGraphic" in2="effect1_backgroundBlur_2_23" result="shape"/>
</filter>
<filter id="filter2_d_2_23" x="77.8843" y="57.4549" width="286.059" height="202.712" filterUnits="userSpaceOnUse" color-interpolation-filters="sRGB">
<feFlood flood-opacity="0" result="BackgroundImageFix"/>
<feColorMatrix in="SourceAlpha" type="matrix" values="0 0 0 0 0 0 0 0 0 0 0 0 0 0 0 0 0 0 127 0" result="hardAlpha"/>
<feOffset/>
<feGaussianBlur stdDeviation="2"/>
<feComposite in2="hardAlpha" operator="out"/>
<feColorMatrix type="matrix" values="0 0 0 0 1 0 0 0 0 1 0 0 0 0 1 0 0 0 0.21 0"/>
<feBlend mode="normal" in2="BackgroundImageFix" result="effect1_dropShadow_2_23"/>
<feBlend mode="normal" in="SourceGraphic" in2="effect1_dropShadow_2_23" result="shape"/>
</filter>
</defs>
</svg>
