<?xml version="1.0" standalone="no"?>
<!DOCTYPE svg PUBLIC "-//W3C//DTD SVG 20010904//EN"
 "http://www.w3.org/TR/2001/REC-SVG-20010904/DTD/svg10.dtd">
<svg version="1.0" xmlns="http://www.w3.org/2000/svg"
 width="512.000000pt" height="512.000000pt" viewBox="0 0 512.000000 512.000000"
 preserveAspectRatio="xMidYMid meet">

<g transform="translate(0.000000,512.000000) scale(0.100000,-0.100000)"
fill="#000000" stroke="none">
<path d="M0 2560 l0 -2560 1233 1 c1033 1 1221 3 1161 14 -100 18 -179 42
-259 79 -85 40 -1413 790 -1507 851 -223 147 -385 389 -439 660 -21 103 -21
1807 0 1910 30 151 104 316 194 433 59 77 163 173 245 227 67 43 1385 791
1478 838 95 48 204 78 364 101 14 2 -536 4 -1222 5 l-1248 1 0 -2560z"/>
<path d="M2688 5109 c96 -12 218 -46 296 -83 56 -26 791 -438 1381 -774 118
-67 193 -120 254 -176 157 -147 265 -340 313 -561 10 -47 13 -253 13 -955 0
-702 -3 -908 -13 -955 -60 -273 -214 -508 -429 -653 -80 -54 -1432 -818 -1518
-858 -81 -37 -159 -61 -259 -79 -60 -11 128 -13 1162 -14 l1232 -1 0 2560 0
2560 -1247 -1 c-697 -1 -1220 -5 -1185 -10z"/>
<path d="M2430 4940 c-145 -23 -196 -49 -935 -466 -396 -224 -744 -423 -773
-442 -172 -113 -299 -292 -354 -502 l-23 -85 0 -885 c0 -884 0 -885 22 -970
47 -177 154 -344 291 -455 69 -56 1479 -858 1580 -898 206 -84 467 -81 665 7
56 24 1400 782 1492 841 169 107 302 296 357 505 l23 85 0 885 0 885 -23 85
c-55 209 -188 398 -357 505 -56 36 -1407 801 -1472 834 -23 11 -81 32 -130 46
-98 29 -267 40 -363 25z m331 -283 c63 -24 1394 -770 1507 -844 107 -71 202
-210 237 -348 23 -89 23 -1721 0 -1810 -36 -140 -140 -288 -250 -357 -165
-103 -1445 -817 -1500 -837 -61 -22 -86 -26 -195 -25 -105 0 -135 3 -190 23
-70 25 -1425 786 -1527 857 -111 79 -193 200 -228 339 -23 90 -23 1722 0 1810
35 133 110 250 208 324 65 49 1449 834 1520 862 84 33 117 38 237 35 94 -2
127 -8 181 -29z"/>
<path d="M2430 4501 c-31 -9 -87 -36 -125 -58 -39 -22 -358 -204 -710 -403
-352 -199 -659 -377 -681 -395 -53 -44 -101 -119 -125 -196 -18 -58 -19 -104
-19 -889 0 -797 1 -830 20 -892 22 -73 81 -161 134 -202 19 -14 322 -189 673
-387 351 -199 667 -378 703 -399 136 -80 265 -100 387 -62 55 18 1364 751
1482 830 70 48 135 136 161 219 19 63 20 92 20 893 0 801 -1 830 -20 893 -26
83 -91 171 -161 219 -118 79 -1427 812 -1482 830 -74 23 -184 23 -257 -1z
m-1192 -1187 c14 -10 124 -217 287 -542 l264 -527 1 505 c0 545 0 543 54 568
33 17 69 9 96 -20 20 -21 20 -32 20 -738 0 -706 0 -717 -20 -738 -28 -29 -63
-37 -97 -20 -24 11 -70 97 -295 543 l-267 530 0 -513 -1 -514 -29 -29 c-18
-17 -40 -29 -56 -29 -16 0 -38 12 -56 29 l-29 29 0 712 0 712 29 29 c33 32 65
37 99 13z m1801 -10 c40 -33 43 -83 6 -119 l-24 -25 -316 0 -315 0 0 -255 0
-255 163 0 c196 0 233 -8 253 -56 12 -29 12 -39 0 -68 -20 -48 -57 -56 -253
-56 l-163 0 0 -309 c0 -307 0 -310 -22 -335 -13 -15 -37 -29 -55 -32 -27 -5
-37 -1 -63 24 l-30 30 0 712 0 712 29 29 29 29 365 0 365 0 31 -26z m942 -3
c37 -38 39 -82 4 -116 -23 -24 -28 -25 -170 -25 l-145 0 0 -654 0 -655 -22
-25 c-13 -15 -37 -29 -55 -32 -27 -5 -37 -1 -63 24 l-30 30 0 656 0 656 -145
0 c-142 0 -147 1 -170 25 -27 27 -33 79 -12 106 29 37 45 38 415 39 l364 0 29
-29z"/>
</g>
</svg>
